<svg width="196" height="88" viewBox="0 0 196 88" fill="none" xmlns="http://www.w3.org/2000/svg">
<path fill-rule="evenodd" clip-rule="evenodd" d="M103.835 22.076V0H111.906V8.90162C114.003 6.80479 116.732 5.75638 120.095 5.75638H120.273C121.698 5.75638 122.934 5.95419 123.982 6.34982C125.051 6.72567 125.871 7.23009 126.445 7.8631C127.019 8.47632 127.434 9.11921 127.691 9.79178C127.968 10.4446 128.107 11.1171 128.107 11.8095V22.076H120.006V14.4503C120.006 13.3228 119.69 12.4326 119.057 11.7798C118.444 11.1072 117.474 10.771 116.149 10.771C114.824 10.771 113.785 11.127 113.033 11.8392C112.282 12.5513 111.906 13.4909 111.906 14.658V22.076H103.835ZM15.6075 52.1636H16.7647C19.2967 52.1636 21.5221 51.9361 23.4409 51.4812C25.3795 51.0262 26.873 50.4723 27.9214 49.8195C28.9896 49.147 29.86 48.3755 30.5325 47.5051C31.2051 46.615 31.6403 45.8237 31.8381 45.1314C32.0359 44.4192 32.1348 43.7269 32.1348 43.0543V42.5796H23.4113C23.3519 42.7972 23.2926 42.995 23.2332 43.173C23.1739 43.351 22.986 43.6478 22.6695 44.0632C22.353 44.4786 21.9573 44.8247 21.4826 45.1017C21.0078 45.3786 20.3056 45.6358 19.3759 45.8732C18.4461 46.0908 17.368 46.1996 16.1416 46.1996C14.7371 46.1996 13.5206 46.0314 12.4919 45.6951C11.4831 45.3588 10.7116 44.9039 10.1775 44.3302C9.6632 43.7566 9.28735 43.173 9.04998 42.5796C8.83238 41.9861 8.72359 41.363 8.72359 40.7102V40.3542C8.72359 36.9122 11.1864 35.1912 16.1119 35.1912C20.2858 35.1912 22.709 36.3188 23.3816 38.5738H32.1348V38.1881C32.1348 37.7331 32.0854 37.2683 31.9865 36.7935C31.9074 36.3188 31.7194 35.7847 31.4227 35.1912C31.1458 34.578 30.7798 34.0043 30.3248 33.4702C29.8699 32.9361 29.2369 32.4119 28.4258 31.8976C27.6346 31.3635 26.7147 30.9086 25.6663 30.5327C24.6377 30.1569 23.3519 29.8502 21.809 29.6129C20.2858 29.3755 18.6044 29.2568 16.7647 29.2568H15.6075C12.9766 29.2568 10.6721 29.514 8.69391 30.0283C6.73556 30.5228 5.21239 31.1459 4.12442 31.8976C3.05622 32.6295 2.19573 33.5197 1.54295 34.5681C0.890162 35.5967 0.464862 36.5462 0.267048 37.4166C0.0890161 38.287 0 39.2167 0 40.2058V41.0663C0 42.0356 0.0989068 42.9653 0.296721 43.8555C0.494534 44.7456 0.929725 45.7149 1.60229 46.7633C2.27486 47.8117 3.15513 48.7217 4.2431 49.4932C5.33108 50.2448 6.84436 50.8779 8.78293 51.3922C10.7413 51.9065 13.0161 52.1636 15.6075 52.1636ZM96.9829 51.7481H88.9121V29.6721H96.9829V42.0157L102.443 35.7845H111.136L104.638 42.8465L112.086 51.7481H102.917L96.9829 44.5675V51.7481ZM120.917 34.4493V29.6721H112.847V34.4493H120.917ZM120.917 51.7481V35.7845H112.847V51.7481H120.917ZM123.278 51.7479V35.7844H131.29V38.6032C131.586 38.3263 131.814 38.1186 131.972 37.9801C132.15 37.8218 132.516 37.5548 133.07 37.179C133.644 36.8031 134.198 36.5163 134.732 36.3185C135.266 36.1009 135.958 35.9031 136.809 35.725C137.679 35.5272 138.589 35.4283 139.539 35.4283H139.717C141.141 35.4283 142.377 35.6261 143.426 36.0217C144.494 36.3976 145.315 36.902 145.888 37.535C146.462 38.1482 146.877 38.7911 147.135 39.4637C147.412 40.1165 147.55 40.7891 147.55 41.4814V51.7479H139.45V44.1222C139.45 42.9947 139.133 42.1045 138.5 41.4517C137.887 40.7792 136.918 40.4429 135.592 40.4429C134.267 40.4429 133.228 40.799 132.477 41.5111C131.725 42.2232 131.349 43.1628 131.349 44.3299V51.7479H123.278ZM162.252 39.9981H162.074C160.432 39.9981 159.245 40.3047 158.513 40.9179C157.801 41.5311 157.445 42.2927 157.445 43.2027V43.351C157.445 44.3005 157.811 45.1017 158.543 45.7545C159.294 46.4072 160.471 46.7336 162.074 46.7336H162.252C163.913 46.7336 165.179 46.4072 166.05 45.7545C166.92 45.0819 167.355 44.2807 167.355 43.351V43.262C167.355 42.3323 166.92 41.5608 166.05 40.9476C165.199 40.3146 163.933 39.9981 162.252 39.9981ZM163.735 57.5343H161.45C159.571 57.5343 157.91 57.3859 156.465 57.0892C155.041 56.7925 153.943 56.4364 153.172 56.021C152.42 55.6056 151.807 55.111 151.332 54.5374C150.877 53.9835 150.581 53.4989 150.442 53.0835C150.323 52.668 150.264 52.2526 150.264 51.8372V51.7482H158.364C158.562 52.6384 159.947 53.0835 162.519 53.0835H162.608C165.832 53.0835 167.444 51.7284 167.444 49.0184V48.692C165.862 50.2745 163.27 51.0658 159.67 51.0658H159.195C155.793 51.0658 153.291 50.3437 151.688 48.8997C150.086 47.4557 149.285 45.6457 149.285 43.4697V42.9356C149.285 40.8388 150.037 39.0782 151.54 37.654C153.043 36.2099 155.417 35.4879 158.661 35.4879H159.314C162.835 35.4879 165.535 36.2693 167.414 37.832V35.7846H175.485V49.0777C175.485 49.8096 175.396 50.5218 175.218 51.2141C175.06 51.9065 174.724 52.6483 174.209 53.4395C173.695 54.2308 173.022 54.9132 172.192 55.4869C171.381 56.0803 170.243 56.565 168.779 56.9408C167.316 57.3364 165.634 57.5343 163.735 57.5343ZM72.8964 52.1932H75.0921C77.1494 52.1932 78.9396 52.0152 80.4628 51.6591C81.9859 51.2832 83.1629 50.8283 83.9937 50.2942C84.8246 49.7601 85.4872 49.0974 85.9818 48.3061C86.4961 47.5149 86.8225 46.7929 86.9609 46.1401C87.0994 45.4675 87.1687 44.7356 87.1687 43.9444V43.4103C87.1687 38.0297 83.153 35.3395 75.1218 35.3395H72.8667C70.9084 35.3395 69.1775 35.5175 67.6741 35.8736C66.1905 36.2296 65.0234 36.6747 64.1728 37.2088C63.3222 37.7429 62.6299 38.3858 62.0958 39.1375C61.5815 39.8892 61.2353 40.6112 61.0572 41.3035C60.8792 41.9761 60.7902 42.6882 60.7902 43.4399V43.9147C60.7902 44.6862 60.8792 45.4181 61.0572 46.1104C61.2353 46.8028 61.5913 47.5347 62.1254 48.3061C62.6595 49.0776 63.3519 49.7403 64.2025 50.2942C65.0729 50.8283 66.2498 51.2832 67.7335 51.6591C69.2171 52.0152 70.938 52.1932 72.8964 52.1932ZM73.9943 39.8496H74.0239C75.824 39.8496 77.0999 40.2156 77.8516 40.9475C78.6231 41.6596 79.0088 42.5399 79.0088 43.5883V43.707C79.0088 44.7356 78.6231 45.6554 77.8516 46.4665C77.0801 47.2577 75.8043 47.6534 74.0239 47.6534H73.9943C72.1744 47.6534 70.8787 47.2676 70.1072 46.4961C69.3555 45.7049 68.9797 44.7752 68.9797 43.707V43.5883C68.9797 42.5399 69.3555 41.6596 70.1072 40.9475C70.8787 40.2156 72.1744 39.8496 73.9943 39.8496ZM47.5933 52.1932H45.3976C43.4392 52.1932 41.7182 52.0152 40.2346 51.6591C38.751 51.2832 37.574 50.8283 36.7036 50.2942C35.8531 49.7403 35.1607 49.0776 34.6266 48.3061C34.0925 47.5347 33.7364 46.8028 33.5584 46.1104C33.3804 45.4181 33.2914 44.6862 33.2914 43.9147V43.4399C33.2914 42.6882 33.3804 41.9761 33.5584 41.3035C33.7364 40.6112 34.0826 39.8892 34.5969 39.1375C35.131 38.3858 35.8234 37.7429 36.674 37.2088C37.5246 36.6747 38.6917 36.2296 40.1753 35.8736C41.6787 35.5175 43.4095 35.3395 45.3679 35.3395H47.623C55.6542 35.3395 59.6698 38.0297 59.6698 43.4103V43.9444C59.6698 44.7356 59.6006 45.4675 59.4621 46.1401C59.3236 46.7929 58.9972 47.5149 58.4829 48.3061C57.9884 49.0974 57.3257 49.7601 56.4949 50.2942C55.6641 50.8283 54.4871 51.2832 52.9639 51.6591C51.4408 52.0152 49.6506 52.1932 47.5933 52.1932ZM46.5251 39.8496H46.4954C44.6755 39.8496 43.3799 40.2156 42.6084 40.9475C41.8567 41.6596 41.4809 42.5399 41.4809 43.5883V43.707C41.4809 44.7752 41.8567 45.7049 42.6084 46.4961C43.3799 47.2676 44.6755 47.6534 46.4954 47.6534H46.5251C48.3054 47.6534 49.5813 47.2577 50.3528 46.4665C51.1243 45.6554 51.51 44.7356 51.51 43.707V43.5883C51.51 42.5399 51.1243 41.6596 50.3528 40.9475C49.6011 40.2156 48.3252 39.8496 46.5251 39.8496ZM88.6513 22.5211H90.4317C91.935 22.5211 93.2901 22.4222 94.4967 22.2244C95.7232 22.0266 96.732 21.7694 97.5233 21.4529C98.3343 21.1364 99.0366 20.7605 99.63 20.3254C100.243 19.8704 100.708 19.4253 101.025 18.9901C101.341 18.5549 101.588 18.0901 101.766 17.5955C101.964 17.0812 102.083 16.646 102.122 16.29C102.182 15.9339 102.211 15.5679 102.211 15.1921V15.1327H93.9626C93.9231 15.3701 93.8439 15.6174 93.7253 15.8745C93.6264 16.1119 93.4285 16.4185 93.1318 16.7944C92.8549 17.1504 92.3999 17.4472 91.7669 17.6845C91.1537 17.9021 90.4119 18.0109 89.5415 18.0109H89.4228C87.8799 18.0109 86.7721 17.6252 86.0995 16.8537C85.427 16.0625 85.0907 15.1031 85.0907 13.9755V13.8272C85.0907 12.759 85.4171 11.8787 86.0699 11.1864C86.7227 10.4742 87.8403 10.1182 89.4228 10.1182H89.5415C90.4317 10.1182 91.1833 10.227 91.7966 10.4446C92.4296 10.6622 92.8846 10.949 93.1615 11.3051C93.4384 11.6413 93.6264 11.9282 93.7253 12.1655C93.8439 12.4029 93.9231 12.6403 93.9626 12.8777H102.211V12.7887C102.211 12.2348 102.152 11.7007 102.033 11.1864C101.915 10.672 101.608 10.0588 101.114 9.3467C100.639 8.63457 100.006 8.03123 99.2146 7.5367C98.4233 7.02238 97.2661 6.58719 95.743 6.23113C94.2396 5.85528 92.479 5.66736 90.4613 5.66736H88.6217C80.808 5.66736 76.9012 8.35763 76.9012 13.7382V14.2723C76.9012 15.0437 76.9704 15.7658 77.1089 16.4383C77.2672 17.0911 77.5936 17.8131 78.0881 18.6044C78.6024 19.3759 79.2651 20.0385 80.0761 20.5924C80.8871 21.1463 82.0246 21.6111 83.4884 21.987C84.972 22.3431 86.693 22.5211 88.6513 22.5211ZM66.7606 15.2216V14.5392L61.4196 15.4887C60.7075 15.6073 60.2031 15.7656 59.9064 15.9634C59.6096 16.1612 59.4613 16.4579 59.4613 16.8536V16.8832C59.4613 17.3382 59.6492 17.724 60.025 18.0405C60.4207 18.357 61.0735 18.5152 61.9834 18.5152C63.4077 18.5152 64.555 18.1888 65.4254 17.536C66.3155 16.8635 66.7606 16.092 66.7606 15.2216ZM66.909 19.9395C65.2869 21.5615 62.7944 22.3726 59.4316 22.3726H59.1052C56.6128 22.3726 54.7533 21.878 53.5269 20.889C52.3202 19.8999 51.7169 18.6833 51.7169 17.2393V16.8832C51.7169 15.4985 52.2114 14.4304 53.2005 13.6787C54.2093 12.9072 55.871 12.4324 58.1854 12.2544L65.8704 11.5719C66.4639 11.4928 66.7606 11.2357 66.7606 10.8005C66.7606 10.5631 66.6914 10.3653 66.5529 10.207C66.4342 10.0488 66.1078 9.91031 65.5737 9.79162C65.0396 9.65315 64.278 9.58392 63.289 9.58392H63.1703C62.379 9.58392 61.7164 9.64326 61.1823 9.76195C60.6679 9.86086 60.302 10.0191 60.0844 10.2367C59.8866 10.4543 59.758 10.6224 59.6986 10.7411C59.6591 10.84 59.6195 10.9983 59.58 11.2159H52.1026V11.0378C52.1026 10.5038 52.1422 10.0389 52.2213 9.64326C52.3202 9.24764 52.5675 8.78277 52.9631 8.24868C53.3587 7.71458 53.8928 7.27939 54.5654 6.9431C55.2577 6.60682 56.2666 6.31999 57.5919 6.08262C58.9371 5.82546 60.5196 5.69688 62.3395 5.69688H64.0011C65.9001 5.69688 67.542 5.81557 68.9267 6.05294C70.3114 6.27054 71.3598 6.54748 72.0719 6.88376C72.784 7.20026 73.3478 7.61567 73.7632 8.12999C74.1786 8.62452 74.4259 9.0696 74.505 9.46523C74.6039 9.84108 74.6534 10.296 74.6534 10.8301V16.7349C74.6534 17.1899 74.8809 17.4173 75.3358 17.4173H76.1963V22.0759H69.4904C68.0068 22.0759 67.1463 21.3637 66.909 19.9395ZM33.5371 11.9875C33.9723 10.3852 35.5054 9.58407 38.1363 9.58407C40.8661 9.58407 42.3992 10.3852 42.7355 11.9875H33.5371ZM50.7469 16.3196V16.2603H42.7948C42.775 16.3592 42.7355 16.4779 42.6761 16.6164C42.6168 16.735 42.4882 16.8933 42.2904 17.0911C42.0926 17.2889 41.8354 17.4669 41.5189 17.6252C41.2222 17.7637 40.787 17.8922 40.2134 18.0109C39.6595 18.1296 39.0265 18.189 38.3144 18.189H38.2847C35.3372 18.189 33.7251 17.2098 33.4481 15.2514H50.8063V14.3613C50.8063 13.7481 50.7667 13.1843 50.6876 12.67C50.6283 12.1359 50.4898 11.5721 50.2722 10.9787C50.0546 10.3654 49.7678 9.82145 49.4117 9.3467C49.0556 8.85216 48.571 8.36752 47.9578 7.89277C47.3643 7.41801 46.6621 7.02238 45.851 6.70588C45.04 6.38938 44.0411 6.14211 42.8542 5.96408C41.6871 5.76627 40.3815 5.66736 38.9375 5.66736H37.3055C29.4523 5.66736 25.5257 8.34774 25.5257 13.7085V14.3019C25.5257 15.113 25.6147 15.8844 25.7927 16.6164C25.9906 17.3285 26.3565 18.0604 26.8906 18.8121C27.4247 19.544 28.1171 20.177 28.9676 20.7111C29.8182 21.2452 30.9656 21.6804 32.4096 22.0167C33.8536 22.3529 35.5153 22.5211 37.3945 22.5211H38.9671C40.9453 22.5211 42.6761 22.3727 44.1597 22.076C45.6631 21.7793 46.8203 21.4232 47.6314 21.0078C48.4424 20.5726 49.0952 20.0583 49.5897 19.4649C50.0843 18.8516 50.4008 18.3077 50.5392 17.8329C50.6777 17.3582 50.7469 16.8537 50.7469 16.3196ZM9.58406 22.076V6.02343H0.0593274V0H27.5357V6.02343H18.0109V22.076H9.58406ZM188.185 35.9589C188.185 41.1209 186.84 47.436 184.223 53.4303C181.603 59.4287 177.828 64.8388 173.184 68.4172C163.386 75.9668 149.938 80.3082 135.779 80.3082C121.62 80.3082 108.173 75.9668 98.375 68.4172C93.4065 64.5888 89.611 60.1187 87.0842 55.3317L80.7241 58.6889C83.7768 64.4722 88.2789 69.7169 93.9854 74.114C105.192 82.749 120.233 87.5 135.779 87.5C151.325 87.5 166.367 82.749 177.573 74.114C183.431 69.6 187.857 63.0789 190.813 56.3082C193.772 49.5332 195.377 42.2412 195.377 35.9589H188.185Z" fill="white"/>
</svg>
